<mxfile host="app.diagrams.net" modified="2021-09-16T05:20:08.628Z" agent="5.0 (Windows NT 6.1) AppleWebKit/537.36 (KHTML, like Gecko) Chrome/92.0.4515.131 YaBrowser/21.8.1.476 Yowser/2.5 Safari/537.36" etag="tqxsGIwwGpBJVZzD4x-3" version="15.0.3" type="github">
  <diagram id="C5RBs43oDa-KdzZeNtuy" name="Page-1">
    <mxGraphModel dx="1223" dy="1222" grid="1" gridSize="10" guides="1" tooltips="1" connect="1" arrows="1" fold="1" page="1" pageScale="1" pageWidth="827" pageHeight="1169" math="0" shadow="0">
      <root>
        <mxCell id="WIyWlLk6GJQsqaUBKTNV-0" />
        <mxCell id="WIyWlLk6GJQsqaUBKTNV-1" parent="WIyWlLk6GJQsqaUBKTNV-0" />
        <mxCell id="zkfFHV4jXpPFQw0GAbJ--0" value="Professon" style="swimlane;fontStyle=2;align=center;verticalAlign=top;childLayout=stackLayout;horizontal=1;startSize=30;horizontalStack=0;resizeParent=1;resizeLast=0;collapsible=1;marginBottom=0;rounded=0;shadow=0;strokeWidth=1;" parent="WIyWlLk6GJQsqaUBKTNV-1" vertex="1">
          <mxGeometry x="220" y="120" width="160" height="120" as="geometry">
            <mxRectangle x="230" y="140" width="160" height="26" as="alternateBounds" />
          </mxGeometry>
        </mxCell>
        <mxCell id="EZgPvaakq9z2BCNZsllE-1" value="name" style="text;html=1;align=left;verticalAlign=middle;resizable=0;points=[];autosize=1;strokeColor=none;" vertex="1" parent="zkfFHV4jXpPFQw0GAbJ--0">
          <mxGeometry y="30" width="160" height="20" as="geometry" />
        </mxCell>
        <mxCell id="EZgPvaakq9z2BCNZsllE-2" value="surename" style="text;html=1;align=left;verticalAlign=middle;resizable=0;points=[];autosize=1;strokeColor=none;" vertex="1" parent="zkfFHV4jXpPFQw0GAbJ--0">
          <mxGeometry y="50" width="160" height="20" as="geometry" />
        </mxCell>
        <mxCell id="EZgPvaakq9z2BCNZsllE-3" value="&lt;span style=&quot;color: rgb(33 , 37 , 41) ; font-family: &amp;#34;arial&amp;#34; , &amp;#34;helvetica neue&amp;#34; , sans-serif ; background-color: rgb(255 , 255 , 255)&quot;&gt;&lt;font style=&quot;font-size: 12px&quot;&gt;education&lt;/font&gt;&lt;/span&gt;" style="text;html=1;align=left;verticalAlign=middle;resizable=0;points=[];autosize=1;strokeColor=none;" vertex="1" parent="zkfFHV4jXpPFQw0GAbJ--0">
          <mxGeometry y="70" width="160" height="20" as="geometry" />
        </mxCell>
        <mxCell id="EZgPvaakq9z2BCNZsllE-4" value="&lt;span style=&quot;color: rgb(33 , 37 , 41) ; font-family: &amp;#34;arial&amp;#34; , &amp;#34;helvetica neue&amp;#34; , sans-serif ; background-color: rgb(255 , 255 , 255)&quot;&gt;&lt;font style=&quot;font-size: 12px&quot;&gt;birthday&lt;/font&gt;&lt;/span&gt;" style="text;html=1;align=left;verticalAlign=middle;resizable=0;points=[];autosize=1;strokeColor=none;" vertex="1" parent="zkfFHV4jXpPFQw0GAbJ--0">
          <mxGeometry y="90" width="160" height="20" as="geometry" />
        </mxCell>
        <mxCell id="EZgPvaakq9z2BCNZsllE-14" style="edgeStyle=orthogonalEdgeStyle;rounded=0;orthogonalLoop=1;jettySize=auto;html=1;entryX=0.5;entryY=1;entryDx=0;entryDy=0;" edge="1" parent="WIyWlLk6GJQsqaUBKTNV-1" source="EZgPvaakq9z2BCNZsllE-7" target="zkfFHV4jXpPFQw0GAbJ--0">
          <mxGeometry relative="1" as="geometry">
            <Array as="points">
              <mxPoint x="515" y="280" />
              <mxPoint x="300" y="280" />
            </Array>
          </mxGeometry>
        </mxCell>
        <mxCell id="EZgPvaakq9z2BCNZsllE-7" value="Engeneer" style="swimlane;startSize=30;" vertex="1" parent="WIyWlLk6GJQsqaUBKTNV-1">
          <mxGeometry x="430" y="310" width="240" height="90" as="geometry" />
        </mxCell>
        <mxCell id="EZgPvaakq9z2BCNZsllE-32" value="public Solving create(Problem problem)" style="text;html=1;align=left;verticalAlign=middle;resizable=0;points=[];autosize=1;strokeColor=none;fontSize=12;" vertex="1" parent="EZgPvaakq9z2BCNZsllE-7">
          <mxGeometry y="50" width="230" height="20" as="geometry" />
        </mxCell>
        <mxCell id="EZgPvaakq9z2BCNZsllE-41" value="public Engineer()" style="text;html=1;align=left;verticalAlign=middle;resizable=0;points=[];autosize=1;strokeColor=none;fontSize=12;" vertex="1" parent="EZgPvaakq9z2BCNZsllE-7">
          <mxGeometry y="30" width="110" height="20" as="geometry" />
        </mxCell>
        <mxCell id="EZgPvaakq9z2BCNZsllE-12" style="edgeStyle=orthogonalEdgeStyle;rounded=0;orthogonalLoop=1;jettySize=auto;html=1;entryX=0.5;entryY=1;entryDx=0;entryDy=0;" edge="1" parent="WIyWlLk6GJQsqaUBKTNV-1" source="EZgPvaakq9z2BCNZsllE-8" target="zkfFHV4jXpPFQw0GAbJ--0">
          <mxGeometry relative="1" as="geometry" />
        </mxCell>
        <mxCell id="EZgPvaakq9z2BCNZsllE-8" value="Doctor" style="swimlane;startSize=30;" vertex="1" parent="WIyWlLk6GJQsqaUBKTNV-1">
          <mxGeometry x="140" y="310" width="140" height="90" as="geometry" />
        </mxCell>
        <mxCell id="EZgPvaakq9z2BCNZsllE-19" style="edgeStyle=orthogonalEdgeStyle;rounded=0;orthogonalLoop=1;jettySize=auto;html=1;entryX=0.5;entryY=1;entryDx=0;entryDy=0;" edge="1" parent="WIyWlLk6GJQsqaUBKTNV-1" source="EZgPvaakq9z2BCNZsllE-15" target="EZgPvaakq9z2BCNZsllE-8">
          <mxGeometry relative="1" as="geometry" />
        </mxCell>
        <mxCell id="EZgPvaakq9z2BCNZsllE-15" value="Dentist" style="swimlane;" vertex="1" parent="WIyWlLk6GJQsqaUBKTNV-1">
          <mxGeometry x="200" y="540" width="150" height="115" as="geometry" />
        </mxCell>
        <mxCell id="EZgPvaakq9z2BCNZsllE-17" style="edgeStyle=orthogonalEdgeStyle;rounded=0;orthogonalLoop=1;jettySize=auto;html=1;entryX=0.5;entryY=1;entryDx=0;entryDy=0;" edge="1" parent="WIyWlLk6GJQsqaUBKTNV-1" source="EZgPvaakq9z2BCNZsllE-16" target="EZgPvaakq9z2BCNZsllE-8">
          <mxGeometry relative="1" as="geometry" />
        </mxCell>
        <mxCell id="EZgPvaakq9z2BCNZsllE-16" value="Surgeon" style="swimlane;" vertex="1" parent="WIyWlLk6GJQsqaUBKTNV-1">
          <mxGeometry x="10" y="540" width="150" height="115" as="geometry" />
        </mxCell>
        <mxCell id="EZgPvaakq9z2BCNZsllE-23" style="edgeStyle=orthogonalEdgeStyle;rounded=0;orthogonalLoop=1;jettySize=auto;html=1;entryX=0.5;entryY=1;entryDx=0;entryDy=0;" edge="1" parent="WIyWlLk6GJQsqaUBKTNV-1" source="EZgPvaakq9z2BCNZsllE-20" target="EZgPvaakq9z2BCNZsllE-7">
          <mxGeometry relative="1" as="geometry">
            <Array as="points">
              <mxPoint x="770" y="470" />
              <mxPoint x="550" y="470" />
            </Array>
          </mxGeometry>
        </mxCell>
        <mxCell id="EZgPvaakq9z2BCNZsllE-20" value="Builder" style="swimlane;startSize=23;" vertex="1" parent="WIyWlLk6GJQsqaUBKTNV-1">
          <mxGeometry x="690" y="540" width="230" height="110" as="geometry" />
        </mxCell>
        <mxCell id="EZgPvaakq9z2BCNZsllE-27" value="String specialization" style="text;html=1;align=left;verticalAlign=middle;resizable=0;points=[];autosize=1;strokeColor=none;" vertex="1" parent="EZgPvaakq9z2BCNZsllE-20">
          <mxGeometry y="25" width="120" height="20" as="geometry" />
        </mxCell>
        <mxCell id="EZgPvaakq9z2BCNZsllE-30" value="public Solving create(Problem problem)" style="text;html=1;align=left;verticalAlign=middle;resizable=0;points=[];autosize=1;strokeColor=none;textDirection=ltr;" vertex="1" parent="EZgPvaakq9z2BCNZsllE-20">
          <mxGeometry y="65" width="230" height="20" as="geometry" />
        </mxCell>
        <mxCell id="EZgPvaakq9z2BCNZsllE-40" value="@Override" style="text;html=1;align=left;verticalAlign=middle;resizable=0;points=[];autosize=1;strokeColor=none;fontSize=12;" vertex="1" parent="EZgPvaakq9z2BCNZsllE-20">
          <mxGeometry y="45" width="70" height="20" as="geometry" />
        </mxCell>
        <mxCell id="EZgPvaakq9z2BCNZsllE-22" style="edgeStyle=orthogonalEdgeStyle;rounded=0;orthogonalLoop=1;jettySize=auto;html=1;entryX=0.5;entryY=1;entryDx=0;entryDy=0;" edge="1" parent="WIyWlLk6GJQsqaUBKTNV-1" source="EZgPvaakq9z2BCNZsllE-21" target="EZgPvaakq9z2BCNZsllE-7">
          <mxGeometry relative="1" as="geometry" />
        </mxCell>
        <mxCell id="EZgPvaakq9z2BCNZsllE-21" value="Programmer" style="swimlane;" vertex="1" parent="WIyWlLk6GJQsqaUBKTNV-1">
          <mxGeometry x="414" y="540" width="230" height="160" as="geometry" />
        </mxCell>
        <mxCell id="EZgPvaakq9z2BCNZsllE-24" value="String languge" style="text;html=1;align=left;verticalAlign=middle;resizable=0;points=[];autosize=1;strokeColor=none;" vertex="1" parent="EZgPvaakq9z2BCNZsllE-21">
          <mxGeometry y="25" width="90" height="20" as="geometry" />
        </mxCell>
        <mxCell id="EZgPvaakq9z2BCNZsllE-26" value="public Solving create(Problem problem)" style="text;html=1;align=left;verticalAlign=middle;resizable=0;points=[];autosize=1;strokeColor=none;" vertex="1" parent="EZgPvaakq9z2BCNZsllE-21">
          <mxGeometry y="85" width="230" height="20" as="geometry" />
        </mxCell>
        <mxCell id="EZgPvaakq9z2BCNZsllE-35" value="coffee()" style="text;html=1;align=left;verticalAlign=middle;resizable=0;points=[];autosize=1;strokeColor=none;fontSize=12;" vertex="1" parent="EZgPvaakq9z2BCNZsllE-21">
          <mxGeometry y="105" width="60" height="20" as="geometry" />
        </mxCell>
        <mxCell id="EZgPvaakq9z2BCNZsllE-39" value="&lt;font color=&quot;#663300&quot;&gt;@Override&lt;/font&gt;" style="text;html=1;align=left;verticalAlign=middle;resizable=0;points=[];autosize=1;strokeColor=none;fontSize=12;" vertex="1" parent="EZgPvaakq9z2BCNZsllE-21">
          <mxGeometry y="65" width="70" height="20" as="geometry" />
        </mxCell>
        <mxCell id="EZgPvaakq9z2BCNZsllE-42" value="public Programmer()" style="text;html=1;align=left;verticalAlign=middle;resizable=0;points=[];autosize=1;strokeColor=none;fontSize=12;" vertex="1" parent="EZgPvaakq9z2BCNZsllE-21">
          <mxGeometry y="45" width="120" height="20" as="geometry" />
        </mxCell>
        <mxCell id="EZgPvaakq9z2BCNZsllE-33" value="Solving" style="swimlane;fontSize=12;align=center;" vertex="1" parent="WIyWlLk6GJQsqaUBKTNV-1">
          <mxGeometry x="414" y="730" width="136" height="70" as="geometry" />
        </mxCell>
        <mxCell id="EZgPvaakq9z2BCNZsllE-37" value="String src" style="text;html=1;align=center;verticalAlign=middle;resizable=0;points=[];autosize=1;strokeColor=none;fontSize=12;" vertex="1" parent="EZgPvaakq9z2BCNZsllE-33">
          <mxGeometry y="25" width="70" height="20" as="geometry" />
        </mxCell>
        <mxCell id="EZgPvaakq9z2BCNZsllE-34" value="Problem" style="swimlane;fontSize=12;align=center;" vertex="1" parent="WIyWlLk6GJQsqaUBKTNV-1">
          <mxGeometry x="414" y="820" width="136" height="70" as="geometry" />
        </mxCell>
        <mxCell id="EZgPvaakq9z2BCNZsllE-38" value="String type" style="text;html=1;align=center;verticalAlign=middle;resizable=0;points=[];autosize=1;strokeColor=none;fontSize=12;" vertex="1" parent="EZgPvaakq9z2BCNZsllE-34">
          <mxGeometry y="20" width="70" height="20" as="geometry" />
        </mxCell>
      </root>
    </mxGraphModel>
  </diagram>
</mxfile>
